<svg width="21" height="21" viewBox="0 0 21 21" fill="none" xmlns="http://www.w3.org/2000/svg">
<path d="M1.14722 9.70735L1.13051 9.69009C1.13059 9.68882 1.13075 9.68758 1.13095 9.68642L10.0547 1.22561C10.0739 1.21222 10.0987 1.2038 10.1278 1.2038C10.1594 1.2038 10.1858 1.21367 10.2057 1.22903L19.127 9.29164C19.1274 9.29299 19.1279 9.29465 19.1284 9.29661C19.1293 9.30077 19.1301 9.30557 19.1303 9.3107C19.1306 9.31563 19.1304 9.3201 19.1299 9.32385L18.9252 9.53531C18.9139 9.54696 18.9028 9.558 18.8919 9.56842C18.8828 9.55976 18.8752 9.55243 18.8693 9.54666L18.8567 9.5343L18.8565 9.53402C18.8561 9.53364 18.8562 9.53377 18.856 9.53355C18.8557 9.53321 18.8551 9.53266 18.8553 9.53278L17.1393 7.76046V10.2309V19.1921C17.1393 19.1975 17.1388 19.2014 17.1384 19.2038H13.5423C13.5419 19.2001 13.5418 19.1962 13.5418 19.1921V12.8325V11.8325H12.5418H8.06376H7.06376V12.8325V19.1921C7.06376 19.1975 7.06332 19.2014 7.06291 19.2038H3.60776C3.60678 19.2004 3.60617 19.1965 3.60617 19.1921V10.1225V7.83673L1.92747 9.38808L1.33594 9.93474L1.17167 9.73681L1.14722 9.70735Z" fill="white" stroke="#7FBF7F" stroke-width="2"/>
</svg>
