<svg width="21" height="20" viewBox="0 0 21 20" fill="none" xmlns="http://www.w3.org/2000/svg">
<path d="M19.8885 9.77417C20.2384 9.3767 20.2034 8.7263 19.8185 8.36496L10.8625 0.271003C10.4427 -0.0903342 9.81298 -0.0903342 9.39316 0.271003L0.437143 8.76242C0.0523137 9.12376 0.0173271 9.77417 0.402156 10.1716L0.612065 10.4246C0.996895 10.822 1.59163 10.8582 1.94147 10.533L2.60617 9.9187V18.9883C2.60617 19.5303 3.02599 20 3.58575 20H7.08419C7.60896 20 8.06376 19.5664 8.06376 18.9883V12.6287H12.5418V18.9883C12.5418 19.5303 12.9266 20 13.4514 20H17.1597C17.6845 20 18.1393 19.5664 18.1393 18.9883V10.0271C18.1393 10.0271 18.3142 10.2078 18.5591 10.3884C18.804 10.6052 19.2588 10.4246 19.6436 10.0271L19.8885 9.77417Z" fill="#058830"/>
</svg>
