<svg width="30" height="30" viewBox="0 0 30 30" fill="none" xmlns="http://www.w3.org/2000/svg">
<path d="M26.7188 2.8125H23.9062V2.34375C23.9062 1.97079 23.7581 1.6131 23.4944 1.34938C23.2306 1.08566 22.873 0.9375 22.5 0.9375C22.127 0.9375 21.7694 1.08566 21.5056 1.34938C21.2419 1.6131 21.0938 1.97079 21.0938 2.34375V2.8125H16.4062V2.34375C16.4062 1.97079 16.2581 1.6131 15.9944 1.34938C15.7306 1.08566 15.373 0.9375 15 0.9375C14.627 0.9375 14.2694 1.08566 14.0056 1.34938C13.7419 1.6131 13.5938 1.97079 13.5938 2.34375V2.8125H8.90625V2.34375C8.90625 1.97079 8.75809 1.6131 8.49437 1.34938C8.23065 1.08566 7.87296 0.9375 7.5 0.9375C7.12704 0.9375 6.76935 1.08566 6.50563 1.34938C6.24191 1.6131 6.09375 1.97079 6.09375 2.34375V2.8125H3.28125C2.65986 2.8132 2.06413 3.06035 1.62474 3.49974C1.18535 3.93913 0.938198 4.53486 0.9375 5.15625V26.7188C0.938198 27.3401 1.18535 27.9359 1.62474 28.3753C2.06413 28.8146 2.65986 29.0618 3.28125 29.0625H26.7188C27.3401 29.0618 27.9359 28.8146 28.3753 28.3753C28.8146 27.9359 29.0618 27.3401 29.0625 26.7188V5.15625C29.0618 4.53486 28.8146 3.93913 28.3753 3.49974C27.9359 3.06035 27.3401 2.8132 26.7188 2.8125ZM22.0312 2.34375C22.0312 2.21943 22.0806 2.1002 22.1685 2.01229C22.2565 1.92439 22.3757 1.875 22.5 1.875C22.6243 1.875 22.7435 1.92439 22.8315 2.01229C22.9194 2.1002 22.9688 2.21943 22.9688 2.34375V5.15625C22.9688 5.28057 22.9194 5.3998 22.8315 5.48771C22.7435 5.57561 22.6243 5.625 22.5 5.625C22.3757 5.625 22.2565 5.57561 22.1685 5.48771C22.0806 5.3998 22.0312 5.28057 22.0312 5.15625V2.34375ZM14.5312 2.34375C14.5312 2.21943 14.5806 2.1002 14.6685 2.01229C14.7565 1.92439 14.8757 1.875 15 1.875C15.1243 1.875 15.2435 1.92439 15.3315 2.01229C15.4194 2.1002 15.4688 2.21943 15.4688 2.34375V5.15625C15.4688 5.28057 15.4194 5.3998 15.3315 5.48771C15.2435 5.57561 15.1243 5.625 15 5.625C14.8757 5.625 14.7565 5.57561 14.6685 5.48771C14.5806 5.3998 14.5312 5.28057 14.5312 5.15625V2.34375ZM7.03125 2.34375C7.03125 2.21943 7.08064 2.1002 7.16854 2.01229C7.25645 1.92439 7.37568 1.875 7.5 1.875C7.62432 1.875 7.74355 1.92439 7.83146 2.01229C7.91936 2.1002 7.96875 2.21943 7.96875 2.34375V5.15625C7.96875 5.28057 7.91936 5.3998 7.83146 5.48771C7.74355 5.57561 7.62432 5.625 7.5 5.625C7.37568 5.625 7.25645 5.57561 7.16854 5.48771C7.08064 5.3998 7.03125 5.28057 7.03125 5.15625V2.34375ZM3.28125 3.75H6.09375V5.15625C6.09375 5.52921 6.24191 5.8869 6.50563 6.15062C6.76935 6.41434 7.12704 6.5625 7.5 6.5625C7.87296 6.5625 8.23065 6.41434 8.49437 6.15062C8.75809 5.8869 8.90625 5.52921 8.90625 5.15625V3.75H13.5938V5.15625C13.5938 5.52921 13.7419 5.8869 14.0056 6.15062C14.2694 6.41434 14.627 6.5625 15 6.5625C15.373 6.5625 15.7306 6.41434 15.9944 6.15062C16.2581 5.8869 16.4062 5.52921 16.4062 5.15625V3.75H21.0938V5.15625C21.0938 5.52921 21.2419 5.8869 21.5056 6.15062C21.7694 6.41434 22.127 6.5625 22.5 6.5625C22.873 6.5625 23.2306 6.41434 23.4944 6.15062C23.7581 5.8869 23.9062 5.52921 23.9062 5.15625V3.75H26.7188C27.0916 3.75043 27.449 3.89873 27.7126 4.16236C27.9763 4.42599 28.1246 4.78342 28.125 5.15625V8.4375H1.875V5.15625C1.87543 4.78342 2.02373 4.42599 2.28736 4.16236C2.55099 3.89873 2.90842 3.75043 3.28125 3.75ZM26.7188 28.125H3.28125C2.90842 28.1246 2.55099 27.9763 2.28736 27.7126C2.02373 27.449 1.87543 27.0916 1.875 26.7188V9.375H28.125V26.7188C28.1246 27.0916 27.9763 27.449 27.7126 27.7126C27.449 27.9763 27.0916 28.1246 26.7188 28.125Z" fill="#058830"/>
<path d="M25.7812 12.6562H23.9062C23.7819 12.6562 23.6627 12.7056 23.5748 12.7935C23.4869 12.8815 23.4375 13.0007 23.4375 13.125V15C23.4375 15.1243 23.4869 15.2435 23.5748 15.3315C23.6627 15.4194 23.7819 15.4688 23.9062 15.4688H25.7812C25.9056 15.4688 26.0248 15.4194 26.1127 15.3315C26.2006 15.2435 26.25 15.1243 26.25 15V13.125C26.25 13.0007 26.2006 12.8815 26.1127 12.7935C26.0248 12.7056 25.9056 12.6562 25.7812 12.6562ZM25.3125 14.5312H24.375V13.5938H25.3125V14.5312Z" fill="#058830"/>
<path d="M16.4062 22.0312H14.5312C14.4069 22.0312 14.2877 22.0806 14.1998 22.1685C14.1119 22.2565 14.0625 22.3757 14.0625 22.5V24.375C14.0625 24.4993 14.1119 24.6185 14.1998 24.7065C14.2877 24.7944 14.4069 24.8438 14.5312 24.8438H16.4062C16.5306 24.8438 16.6498 24.7944 16.7377 24.7065C16.8256 24.6185 16.875 24.4993 16.875 24.375V22.5C16.875 22.3757 16.8256 22.2565 16.7377 22.1685C16.6498 22.0806 16.5306 22.0312 16.4062 22.0312ZM15.9375 23.9062H15V22.9688H15.9375V23.9062Z" fill="#058830"/>
<path d="M11.7188 12.6562H9.84375C9.71943 12.6562 9.6002 12.7056 9.51229 12.7935C9.42439 12.8815 9.375 13.0007 9.375 13.125V15C9.375 15.1243 9.42439 15.2435 9.51229 15.3315C9.6002 15.4194 9.71943 15.4688 9.84375 15.4688H11.7188C11.8431 15.4688 11.9623 15.4194 12.0502 15.3315C12.1381 15.2435 12.1875 15.1243 12.1875 15V13.125C12.1875 13.0007 12.1381 12.8815 12.0502 12.7935C11.9623 12.7056 11.8431 12.6562 11.7188 12.6562ZM11.25 14.5312H10.3125V13.5938H11.25V14.5312Z" fill="#058830"/>
<path d="M7.03125 17.3438H5.15625C5.03193 17.3438 4.9127 17.3931 4.82479 17.481C4.73689 17.569 4.6875 17.6882 4.6875 17.8125V19.6875C4.6875 19.8118 4.73689 19.931 4.82479 20.019C4.9127 20.1069 5.03193 20.1562 5.15625 20.1562H7.03125C7.15557 20.1562 7.2748 20.1069 7.36271 20.019C7.45061 19.931 7.5 19.8118 7.5 19.6875V17.8125C7.5 17.6882 7.45061 17.569 7.36271 17.481C7.2748 17.3931 7.15557 17.3438 7.03125 17.3438ZM6.5625 19.2188H5.625V18.2812H6.5625V19.2188Z" fill="#058830"/>
<path d="M11.7188 17.3438H9.84375C9.71943 17.3438 9.6002 17.3931 9.51229 17.481C9.42439 17.569 9.375 17.6882 9.375 17.8125V19.6875C9.375 19.8118 9.42439 19.931 9.51229 20.019C9.6002 20.1069 9.71943 20.1562 9.84375 20.1562H11.7188C11.8431 20.1562 11.9623 20.1069 12.0502 20.019C12.1381 19.931 12.1875 19.8118 12.1875 19.6875V17.8125C12.1875 17.6882 12.1381 17.569 12.0502 17.481C11.9623 17.3931 11.8431 17.3438 11.7188 17.3438ZM11.25 19.2188H10.3125V18.2812H11.25V19.2188Z" fill="#058830"/>
<path d="M7.03125 22.0312H5.15625C5.03193 22.0312 4.9127 22.0806 4.82479 22.1685C4.73689 22.2565 4.6875 22.3757 4.6875 22.5V24.375C4.6875 24.4993 4.73689 24.6185 4.82479 24.7065C4.9127 24.7944 5.03193 24.8438 5.15625 24.8438H7.03125C7.15557 24.8438 7.2748 24.7944 7.36271 24.7065C7.45061 24.6185 7.5 24.4993 7.5 24.375V22.5C7.5 22.3757 7.45061 22.2565 7.36271 22.1685C7.2748 22.0806 7.15557 22.0312 7.03125 22.0312ZM6.5625 23.9062H5.625V22.9688H6.5625V23.9062Z" fill="#058830"/>
<path d="M11.7188 22.0312H9.84375C9.71943 22.0312 9.6002 22.0806 9.51229 22.1685C9.42439 22.2565 9.375 22.3757 9.375 22.5V24.375C9.375 24.4993 9.42439 24.6185 9.51229 24.7065C9.6002 24.7944 9.71943 24.8438 9.84375 24.8438H11.7188C11.8431 24.8438 11.9623 24.7944 12.0502 24.7065C12.1381 24.6185 12.1875 24.4993 12.1875 24.375V22.5C12.1875 22.3757 12.1381 22.2565 12.0502 22.1685C11.9623 22.0806 11.8431 22.0312 11.7188 22.0312ZM11.25 23.9062H10.3125V22.9688H11.25V23.9062Z" fill="#058830"/>
<path d="M21.6333 14.5888L19.2895 14.2307L18.2368 11.9883C18.199 11.9077 18.139 11.8395 18.0639 11.7918C17.9887 11.744 17.9015 11.7187 17.8125 11.7187C17.7235 11.7187 17.6363 11.744 17.5611 11.7918C17.486 11.8395 17.426 11.9077 17.3882 11.9883L16.336 14.2307L13.9922 14.5888C13.907 14.6018 13.8269 14.6381 13.761 14.6936C13.695 14.7491 13.6456 14.8217 13.6182 14.9035C13.5909 14.9853 13.5866 15.073 13.6059 15.157C13.6251 15.2411 13.6672 15.3182 13.7275 15.3799L15.4373 17.1322L15.033 19.6123C15.019 19.699 15.0297 19.7878 15.0637 19.8688C15.0978 19.9497 15.1539 20.0195 15.2257 20.0701C15.2975 20.1207 15.382 20.1501 15.4697 20.1549C15.5574 20.1598 15.6447 20.14 15.7217 20.0977L17.8125 18.9419L19.9034 20.0977C19.9804 20.1402 20.0678 20.1602 20.1556 20.1555C20.2435 20.1507 20.3282 20.1213 20.4001 20.0706C20.472 20.0199 20.5282 19.9501 20.5623 19.869C20.5964 19.7879 20.6069 19.6988 20.5928 19.612L20.1885 17.1319L21.8983 15.3796C21.9586 15.3179 22.0007 15.2408 22.0199 15.1567C22.0392 15.0727 22.0349 14.985 22.0076 14.9032C21.9802 14.8214 21.9308 14.7488 21.8648 14.6933C21.7988 14.6378 21.7188 14.6015 21.6336 14.5886L21.6333 14.5888ZM19.352 16.6465C19.3008 16.699 19.2626 16.7628 19.2405 16.8328C19.2184 16.9027 19.213 16.9769 19.2249 17.0493L19.512 18.8101L18.0392 17.9957C17.9697 17.9573 17.8917 17.9372 17.8124 17.9372C17.7331 17.9372 17.6551 17.9573 17.5856 17.9957L16.1128 18.8101L16.3999 17.0493C16.4117 16.9769 16.4064 16.9027 16.3843 16.8328C16.3622 16.7628 16.324 16.699 16.2728 16.6465L15.0352 15.3778L16.7246 15.12C16.8007 15.1084 16.8727 15.0782 16.9344 15.0321C16.996 14.986 17.0454 14.9255 17.0781 14.8558L17.8125 13.2907L18.547 14.8555C18.5797 14.9252 18.629 14.9857 18.6907 15.0318C18.7523 15.0779 18.8244 15.1081 18.9005 15.1197L20.5899 15.3775L19.352 16.6465Z" fill="#058830"/>
<path d="M25.7812 17.3438H23.9062C23.7819 17.3438 23.6627 17.3931 23.5748 17.481C23.4869 17.569 23.4375 17.6882 23.4375 17.8125V19.6875C23.4375 19.8118 23.4869 19.931 23.5748 20.019C23.6627 20.1069 23.7819 20.1562 23.9062 20.1562H25.7812C25.9056 20.1562 26.0248 20.1069 26.1127 20.019C26.2006 19.931 26.25 19.8118 26.25 19.6875V17.8125C26.25 17.6882 26.2006 17.569 26.1127 17.481C26.0248 17.3931 25.9056 17.3438 25.7812 17.3438ZM25.3125 19.2188H24.375V18.2812H25.3125V19.2188Z" fill="#058830"/>
<path d="M25.7812 22.0312H23.9062C23.7819 22.0312 23.6627 22.0806 23.5748 22.1685C23.4869 22.2565 23.4375 22.3757 23.4375 22.5V24.375C23.4375 24.4993 23.4869 24.6185 23.5748 24.7065C23.6627 24.7944 23.7819 24.8438 23.9062 24.8438H25.7812C25.9056 24.8438 26.0248 24.7944 26.1127 24.7065C26.2006 24.6185 26.25 24.4993 26.25 24.375V22.5C26.25 22.3757 26.2006 22.2565 26.1127 22.1685C26.0248 22.0806 25.9056 22.0312 25.7812 22.0312ZM25.3125 23.9062H24.375V22.9688H25.3125V23.9062Z" fill="#058830"/>
<path d="M21.0938 22.0312H19.2188C19.0944 22.0312 18.9752 22.0806 18.8873 22.1685C18.7994 22.2565 18.75 22.3757 18.75 22.5V24.375C18.75 24.4993 18.7994 24.6185 18.8873 24.7065C18.9752 24.7944 19.0944 24.8438 19.2188 24.8438H21.0938C21.2181 24.8438 21.3373 24.7944 21.4252 24.7065C21.5131 24.6185 21.5625 24.4993 21.5625 24.375V22.5C21.5625 22.3757 21.5131 22.2565 21.4252 22.1685C21.3373 22.0806 21.2181 22.0312 21.0938 22.0312ZM20.625 23.9062H19.6875V22.9688H20.625V23.9062Z" fill="#058830"/>
</svg>
