<svg width="30" height="30" viewBox="0 0 30 30" fill="none" xmlns="http://www.w3.org/2000/svg">
<path d="M3.67616 28.9998C3.56718 28.8908 3.416 28.8281 3.2619 28.8281C3.10721 28.8281 2.95663 28.8908 2.84764 28.9998C2.73807 29.1088 2.67596 29.26 2.67596 29.4141C2.67596 29.5682 2.73807 29.7193 2.84764 29.8283C2.95663 29.9372 3.10727 30 3.2619 30C3.416 30 3.56718 29.9373 3.67616 29.8283C3.78509 29.7193 3.84784 29.5682 3.84784 29.4141C3.84784 29.26 3.78514 29.1088 3.67616 28.9998Z" fill="#058830"/>
<path d="M21.8595 24.859C21.7506 24.75 21.5994 24.6873 21.4453 24.6873C21.2912 24.6873 21.14 24.75 21.0311 24.859C20.9221 24.968 20.8594 25.1192 20.8594 25.2733C20.8594 25.4279 20.922 25.5785 21.0311 25.6875C21.14 25.7964 21.2912 25.8592 21.4453 25.8592C21.5994 25.8592 21.7506 25.7965 21.8595 25.6875C21.9685 25.5785 22.0312 25.4279 22.0312 25.2733C22.0312 25.1192 21.9686 24.968 21.8595 24.859Z" fill="#058830"/>
<path d="M28.1102 9.46992C28.5536 9.02461 28.8281 8.41096 28.8281 7.73438V7.26562C28.8281 5.90865 27.7242 4.80469 26.3672 4.80469C25.0102 4.80469 23.9062 5.90865 23.9062 7.26562V7.73438C23.9062 8.41107 24.1809 9.02473 24.6244 9.4701C23.6627 9.99826 22.9642 10.9487 22.7816 12.0703H20.0977C19.1284 12.0703 18.3398 12.8589 18.3398 13.8281C18.3398 14.0336 18.3756 14.2307 18.4406 14.4141H11.5594C11.6244 14.2307 11.6602 14.0336 11.6602 13.8281C11.6602 12.8589 10.8716 12.0703 9.90234 12.0703H7.2184C7.03576 10.9487 6.33732 9.9982 5.37563 9.4701C5.81912 9.02473 6.09375 8.41107 6.09375 7.73438V7.26562C6.09375 5.90865 4.98979 4.80469 3.63281 4.80469C2.27584 4.80469 1.17188 5.90865 1.17188 7.26562V7.73438C1.17188 8.41096 1.44645 9.02461 1.88982 9.46992C0.76459 10.0879 0 11.2843 0 12.6562V18.5156V19.2285C0 21.0647 1.49385 22.5586 3.33006 22.5586H7.96875V28.1543C7.96875 28.3921 8.01445 28.6192 8.09666 28.8281H5.78127C5.45772 28.8281 5.19533 29.0905 5.19533 29.4141C5.19533 29.7376 5.45772 30 5.78127 30H26.7383C27.0618 30 27.3242 29.7376 27.3242 29.4141C27.3242 29.0905 27.0618 28.8281 26.7383 28.8281H21.9033C21.9855 28.6192 22.0312 28.3921 22.0312 28.1543V27.4805C22.0312 27.1569 21.7689 26.8945 21.4453 26.8945C21.1218 26.8945 20.8594 27.1569 20.8594 27.4805V28.1543C20.8594 28.5258 20.5571 28.8281 20.1855 28.8281C19.814 28.8281 19.5117 28.5258 19.5117 28.1543V20.7568C19.5117 19.8441 20.2543 19.1016 21.167 19.1016H23.3203H23.7891H28.8281V19.2285C28.8281 20.4186 27.86 21.3867 26.6699 21.3867H21.4453C21.1218 21.3867 20.8594 21.6491 20.8594 21.9727V22.9102C20.8594 23.2337 21.1218 23.4961 21.4453 23.4961C21.7689 23.4961 22.0312 23.2337 22.0312 22.9102V22.5586H26.6699C28.5062 22.5586 30 21.0647 30 19.2285V18.5156V12.6562C30 11.2843 29.2354 10.0879 28.1102 9.46992ZM25.0781 7.26562C25.0781 6.55482 25.6564 5.97656 26.3672 5.97656C27.078 5.97656 27.6562 6.55482 27.6562 7.26562V7.73438C27.6562 8.44518 27.078 9.02344 26.3672 9.02344C25.6564 9.02344 25.0781 8.44518 25.0781 7.73438V7.26562ZM2.34375 7.26562C2.34375 6.55482 2.92201 5.97656 3.63281 5.97656C4.34361 5.97656 4.92188 6.55482 4.92188 7.26562V7.73438C4.92188 8.44518 4.34361 9.02344 3.63281 9.02344C2.92201 9.02344 2.34375 8.44518 2.34375 7.73438V7.26562ZM1.17188 12.6562C1.17188 11.2993 2.27584 10.1953 3.63281 10.1953C4.98979 10.1953 6.09375 11.2993 6.09375 12.6562C6.09375 12.9798 6.35613 13.2422 6.67969 13.2422H9.90234C10.2254 13.2422 10.4883 13.505 10.4883 13.8281C10.4883 14.1512 10.2254 14.4141 9.90234 14.4141H6.49014C5.5585 14.4141 4.70648 13.9039 4.2665 13.0826C4.11375 12.7974 3.75855 12.69 3.47332 12.8429C3.18809 12.9956 3.08074 13.3508 3.23355 13.6361C3.82014 14.731 4.90693 15.4484 6.1265 15.5681C6.10529 15.6287 6.09375 15.6939 6.09375 15.7617V17.9297H1.17188V12.6562ZM8.40129 17.9297H7.26562V15.7617C7.26562 15.7005 7.25625 15.6414 7.23879 15.5859H8.40129C8.20119 15.9309 8.08594 16.3311 8.08594 16.7578C8.08594 17.1846 8.20113 17.5847 8.40129 17.9297ZM10.4883 28.1543C10.4883 28.5258 10.186 28.8281 9.81445 28.8281C9.44291 28.8281 9.14062 28.5258 9.14062 28.1543V21.9727C9.14062 21.6491 8.87824 21.3867 8.55469 21.3867H3.33006C2.14002 21.3867 1.17188 20.4186 1.17188 19.2285V19.1016H6.21094H6.67969H8.83301C9.74572 19.1016 10.4883 19.8441 10.4883 20.7568V28.1543ZM13.2422 28.8281H11.5322C11.6145 28.6192 11.6602 28.3921 11.6602 28.1543V20.7568C11.6602 20.139 11.4604 19.5673 11.1228 19.1016H13.2422V28.8281ZM15.5859 28.8281H14.4141V19.1016H15.5859V28.8281ZM18.4678 28.8281H16.7578V19.1016H18.8772C18.5396 19.5673 18.3398 20.139 18.3398 20.7568V28.1543C18.3398 28.3921 18.3855 28.6192 18.4678 28.8281ZM19.5703 17.9297H10.4297C9.78352 17.9297 9.25781 17.404 9.25781 16.7578C9.25781 16.1116 9.78352 15.5859 10.4297 15.5859H19.5703C20.2165 15.5859 20.7422 16.1116 20.7422 16.7578C20.7422 17.404 20.2165 17.9297 19.5703 17.9297ZM22.7344 15.7617V17.9297H21.5987C21.7988 17.5847 21.9141 17.1846 21.9141 16.7578C21.9141 16.3311 21.7989 15.9309 21.5987 15.5859H22.7612C22.7437 15.6414 22.7344 15.7005 22.7344 15.7617ZM28.8281 17.9297H23.9062V15.7617C23.9062 15.6939 23.8947 15.6287 23.8735 15.5681C25.0931 15.4484 26.1799 14.731 26.7664 13.6361C26.9193 13.3508 26.8119 12.9956 26.5267 12.8429C26.2413 12.6901 25.8863 12.7975 25.7335 13.0826C25.2935 13.9039 24.4415 14.4141 23.5099 14.4141H20.0977C19.7746 14.4141 19.5117 14.1512 19.5117 13.8281C19.5117 13.505 19.7746 13.2422 20.0977 13.2422H23.3203C23.6439 13.2422 23.9062 12.9798 23.9062 12.6562C23.9062 11.2993 25.0102 10.1953 26.3672 10.1953C27.7242 10.1953 28.8281 11.2993 28.8281 12.6562V17.9297Z" fill="#058830"/>
<path d="M19.2188 0H10.7812C9.81199 0 9.02344 0.788555 9.02344 1.75781V7.5C9.02344 8.46926 9.81199 9.25781 10.7812 9.25781H12.8237L14.5856 11.0198C14.7001 11.1342 14.85 11.1914 15 11.1914C15.15 11.1914 15.2999 11.1342 15.4143 11.0198L17.1763 9.25781H19.2188C20.188 9.25781 20.9766 8.46926 20.9766 7.5V1.75781C20.9766 0.788555 20.188 0 19.2188 0ZM19.8047 7.5C19.8047 7.82309 19.5418 8.08594 19.2188 8.08594H16.9336C16.7782 8.08594 16.6292 8.1477 16.5193 8.25756L15 9.77678L13.4807 8.2575C13.3708 8.14769 13.2218 8.08594 13.0664 8.08594H10.7812C10.4582 8.08594 10.1953 7.82309 10.1953 7.5V1.75781C10.1953 1.43473 10.4582 1.17188 10.7812 1.17188H19.2188C19.5418 1.17188 19.8047 1.43473 19.8047 1.75781V7.5Z" fill="#058830"/>
<path d="M12.6603 3.99022C12.5514 3.88065 12.4002 3.81854 12.2461 3.81854C12.092 3.81854 11.9408 3.88065 11.8318 3.99022C11.7229 4.09921 11.6602 4.25038 11.6602 4.40448C11.6602 4.55858 11.7228 4.70975 11.8318 4.81874C11.9408 4.92772 12.092 4.99042 12.2461 4.99042C12.4002 4.99042 12.5514 4.92772 12.6603 4.81874C12.7693 4.70975 12.832 4.55858 12.832 4.40448C12.832 4.25038 12.7693 4.09921 12.6603 3.99022Z" fill="#058830"/>
<path d="M15.4142 3.99022C15.3053 3.8813 15.1541 3.81854 15 3.81854C14.8459 3.81854 14.6947 3.88124 14.5857 3.99022C14.4768 4.09921 14.4141 4.25038 14.4141 4.40448C14.4141 4.55858 14.4767 4.70975 14.5857 4.81874C14.6947 4.92772 14.8459 4.99042 15 4.99042C15.1541 4.99042 15.3053 4.92772 15.4142 4.81874C15.5232 4.70975 15.5859 4.55858 15.5859 4.40448C15.5859 4.25038 15.5232 4.09921 15.4142 3.99022Z" fill="#058830"/>
<path d="M18.1681 3.99022C18.0592 3.88065 17.908 3.81854 17.7539 3.81854C17.5998 3.81854 17.4486 3.88065 17.3396 3.99022C17.2307 4.09921 17.168 4.25038 17.168 4.40448C17.168 4.55858 17.2306 4.70975 17.3396 4.81874C17.4486 4.92772 17.5998 4.99042 17.7539 4.99042C17.908 4.99042 18.0592 4.92772 18.1681 4.81874C18.2771 4.70975 18.3398 4.55858 18.3398 4.40448C18.3398 4.25038 18.2771 4.09921 18.1681 3.99022Z" fill="#058830"/>
</svg>
