<svg width="30" height="30" viewBox="0 0 30 30" fill="none" xmlns="http://www.w3.org/2000/svg">
<path d="M0.440072 15.4469C0.531544 15.4469 0.623837 15.4184 0.702769 15.3595L6.81753 10.7916C7.01196 10.6463 7.05186 10.3709 6.9066 10.1765C6.76133 9.98207 6.48598 9.94223 6.29143 10.0874L0.17673 14.6552C-0.0177 14.8005 -0.0576057 15.0759 0.0876602 15.2704C0.173976 15.3859 0.306174 15.4469 0.440072 15.4469Z" fill="#058830"/>
<path d="M28.2009 11.4207L28.3272 11.3075C30.4011 9.4411 30.5699 6.23552 28.7036 4.1616C28.5322 3.97127 28.3457 3.79296 28.1492 3.63158C27.9615 3.47752 27.6847 3.50471 27.5306 3.6924C27.3766 3.87998 27.4038 4.15697 27.5914 4.31097C27.754 4.4444 27.9083 4.59201 28.0502 4.74964C29.5923 6.46324 29.4528 9.11195 27.7398 10.6535L23.3397 14.6132C22.2978 15.5637 20.7131 15.9615 19.2919 15.5436L16.9054 14.855C16.9495 14.8265 19.985 13.237 20.0349 13.2089C20.6991 12.8369 20.9984 11.9461 20.6725 11.2269C20.3732 10.5649 19.6431 10.1967 18.9332 10.3491L15.793 10.9133C15.7872 10.9144 15.7815 10.9155 15.7759 10.9168C15.3884 11.0024 14.9893 10.9344 14.652 10.7254L13.1827 9.8149C12.7977 9.57634 12.385 9.39193 11.9559 9.26331C10.8894 7.55944 11.1985 5.29765 12.7056 3.94145C13.5357 3.19437 14.6069 2.81536 15.7222 2.87408C16.8374 2.93279 17.863 3.42226 18.61 4.25243L19.2867 5.00431C19.4456 5.18087 19.64 5.31383 19.8552 5.39721L18.8452 6.39151C18.6722 6.5618 18.67 6.84002 18.8403 7.01301C18.9263 7.10038 19.0399 7.14415 19.1535 7.14415C19.2648 7.14415 19.3762 7.10208 19.4618 7.01787L22.1458 4.43854C23.1361 3.54726 24.4545 3.18582 25.7632 3.44647C26.0011 3.49405 26.2327 3.33935 26.2801 3.10132C26.3276 2.86329 26.1731 2.63183 25.935 2.58442C24.3518 2.26887 22.7562 2.70648 21.5577 3.78511L20.8057 4.4618C20.684 4.57138 20.527 4.62805 20.3634 4.61832C20.1999 4.60976 20.0496 4.53798 19.94 4.41621L19.2633 3.66434C18.3592 2.65966 17.1181 2.06723 15.7684 1.99615C14.4185 1.92495 13.1221 2.38378 12.1175 3.2879C10.4848 4.75726 10.0139 7.10518 10.8591 9.06103C10.2274 9.04796 9.13119 9.00624 8.44418 9.10439C8.20463 9.14336 8.0419 9.36914 8.08087 9.60869C8.1063 9.7754 8.31649 10.0131 8.58511 9.972C9.88008 9.87379 11.5489 9.78759 12.7196 10.5619L14.1889 11.4724C14.7195 11.8011 15.3468 11.909 15.9565 11.7768L19.0964 11.2126C19.3437 11.1513 19.718 11.2698 19.8715 11.5889C20.0107 11.8967 19.8998 12.2593 19.6138 12.4371L16.5239 14.0606C15.587 14.6363 14.307 14.8134 13.2155 14.4557L11.0152 13.7557C10.7838 13.6822 10.5367 13.81 10.4631 14.0413C10.3895 14.2726 10.5174 14.5198 10.7487 14.5934L12.949 15.2934C13.7482 15.5432 14.6727 15.6072 15.5813 15.3876L19.0482 16.388C20.6754 16.874 22.6336 16.4585 23.9283 15.2659C23.9283 15.2659 26.8959 12.5903 26.9068 12.5806C27.1761 12.3557 27.7676 12.0302 28.2214 12.4381C28.586 12.7873 28.5881 13.281 28.2269 13.6665C28.2223 13.6714 28.2179 13.6764 28.2135 13.6815L25.9 16.3891C25.7424 16.5737 25.7641 16.8511 25.9486 17.0088C26.0314 17.0795 26.1329 17.1141 26.2339 17.1141C26.358 17.1141 26.4813 17.0618 26.5683 16.9601L28.8757 14.2597C29.5627 13.5192 29.5439 12.4878 28.8296 11.8034C28.6389 11.621 28.4267 11.4938 28.2009 11.4207Z" fill="#058830"/>
<path d="M25.249 17.8278C25.0645 17.6702 24.7871 17.6919 24.6294 17.8765L23.7078 18.955C22.4515 20.3605 19.958 20.767 17.037 20.0422L10.502 18.4083C9.72722 18.2018 8.89576 18.4268 8.33093 18.996L0.127771 27.2619C-0.0432194 27.4341 -0.0421647 27.7124 0.130115 27.8834C0.215845 27.9684 0.327768 28.0109 0.439692 28.0109C0.552728 28.0109 0.665706 27.9676 0.751612 27.881L8.95477 19.6152C9.29898 19.2683 9.80609 19.1314 10.2779 19.2582C10.2804 19.2588 10.2828 19.2594 10.2852 19.26L16.8246 20.895C18.2599 21.2512 19.6651 21.3574 20.8883 21.2023C22.3798 21.0131 23.5501 20.4527 24.3668 19.5365C24.3688 19.5342 24.3708 19.5319 24.3729 19.5296L25.2976 18.4473C25.4553 18.2629 25.4335 17.9855 25.249 17.8278Z" fill="#058830"/>
</svg>
