<svg width="30" height="30" viewBox="0 0 30 30" fill="none" xmlns="http://www.w3.org/2000/svg">
<g clip-path="url(#clip0)">
<path d="M3.97219 24.2024C4.03804 24.4696 4.27734 24.6482 4.54066 24.6482C4.58706 24.6482 4.63423 24.6427 4.68134 24.6311L7.51422 23.9329C7.7732 23.8691 7.95642 23.6383 7.95988 23.3716C8.03441 17.6273 8.06552 17.5529 9.69131 13.6643L11.2617 10.1452C11.3944 9.85007 11.2626 9.50325 10.9674 9.3706C10.6722 9.238 10.3254 9.36978 10.1928 9.66497L8.61015 13.2122C6.97469 17.1239 6.8701 17.3742 6.79416 22.9033L4.40097 23.4931C4.08668 23.5707 3.89472 23.8882 3.97219 24.2024Z" fill="#058830"/>
<path d="M25.5152 28.8308C24.06 28.6904 22.603 28.3864 21.3017 27.9517C20.9948 27.8493 20.6629 28.015 20.5603 28.3218C20.4578 28.6287 20.6235 28.9607 20.9304 29.0632C22.3143 29.5255 23.8608 29.8484 25.4026 29.9972C25.4218 29.999 25.4407 30 25.4596 30C25.7579 30 26.0129 29.7732 26.0422 29.4703C26.0732 29.1482 25.8373 28.8618 25.5152 28.8308Z" fill="#058830"/>
<path d="M22.4859 23.9329L25.3187 24.6311C25.6332 24.7082 25.9504 24.5166 26.0279 24.2025C26.1053 23.8882 25.9134 23.5708 25.5992 23.4932L23.2061 22.9034C23.1301 17.3743 23.0255 17.1239 21.3901 13.2123L17.8864 5.38928C17.4209 4.35312 16.3253 4.14048 15.5308 4.4662C15.3399 4.54448 15.158 4.65845 15 4.80323C14.8421 4.65845 14.6602 4.54448 14.4693 4.4662C13.6748 4.14042 12.5792 4.35306 12.1137 5.38928C11.9811 5.68448 12.1129 6.03123 12.4081 6.16389C12.7032 6.29654 13.0501 6.16471 13.1827 5.86952C13.382 5.42585 13.8205 5.46669 14.0246 5.55053C14.2077 5.62559 14.4875 5.82551 14.3033 6.32051L12.6524 10.7579C11.9841 10.8776 11.4207 11.4144 11.2277 12.1706C10.9515 13.2526 10.7021 14.2947 10.4609 15.3025C10.3389 15.8126 10.2168 16.3226 10.0909 16.8395C10.0143 17.154 10.2072 17.4709 10.5216 17.5474C10.8362 17.6242 11.153 17.4312 11.2296 17.1167C11.3558 16.5983 11.4782 16.0867 11.6006 15.5752C11.8408 14.5716 12.0892 13.5338 12.3632 12.4603C12.4402 12.1586 12.6621 11.8721 12.9851 11.9072C12.9909 11.908 12.9966 11.9087 13.0024 11.9093C13.3 11.9513 13.5105 12.2254 13.4733 12.5247C13.4356 12.827 13.3716 13.4166 13.3096 13.9868C13.2482 14.5524 13.1846 15.1374 13.1481 15.4305C12.9475 17.0395 13.0069 17.2327 13.533 18.2603C13.6329 18.4555 13.7462 18.6767 13.8833 18.962C14.492 20.2057 14.3896 21.9104 13.5611 24.327C12.6773 26.9048 8.23673 28.4687 4.48482 28.8308C4.16273 28.8619 3.92683 29.1483 3.95789 29.4704C3.98712 29.7733 4.24218 30 4.54042 30C4.55923 30 4.57827 29.9991 4.59743 29.9973C8.84885 29.5869 13.612 27.7919 14.6696 24.707C14.7953 24.3406 14.9051 23.9878 15 23.6473C15.095 23.9878 15.2048 24.3405 15.3304 24.707C15.566 25.394 15.9974 26.0462 16.6126 26.6455C16.7265 26.7565 16.874 26.8117 17.0214 26.8117C17.174 26.8117 17.3263 26.7525 17.4412 26.6347C17.667 26.4029 17.6621 26.0319 17.4303 25.8061C16.9479 25.3362 16.6144 24.8385 16.439 24.327C15.6105 21.9104 15.5081 20.2056 16.1186 18.9583C16.2539 18.6767 16.3671 18.4555 16.4671 18.2603C16.9932 17.2327 17.0526 17.0395 16.852 15.4305C16.8153 15.1369 16.7517 14.5509 16.6901 13.9842C16.6283 13.4151 16.5644 12.8265 16.5268 12.5247C16.5087 12.3795 16.5489 12.235 16.6401 12.1179C16.7294 12.0031 16.8562 11.9293 16.9978 11.9093C17.0035 11.9087 17.0092 11.908 17.0148 11.9072C17.3379 11.8718 17.5598 12.1586 17.6368 12.4604C17.9105 13.5325 18.1586 14.569 18.3985 15.5714C18.5213 16.0843 18.644 16.5971 18.7706 17.1168C18.8472 17.4312 19.1641 17.6238 19.4785 17.5474C19.7929 17.4708 19.9857 17.1539 19.9092 16.8395C19.783 16.3213 19.6606 15.81 19.5382 15.2987C19.2973 14.292 19.0482 13.2512 18.7723 12.1706C18.5793 11.4143 18.0161 10.8774 17.3477 10.7578L15.6968 6.32045C15.5126 5.82551 15.7923 5.62559 15.9755 5.55047C16.1795 5.46669 16.618 5.42573 16.8174 5.86946L20.3088 13.6643C21.9346 17.5529 21.9657 17.6273 22.0403 23.3716C22.0437 23.6383 22.2269 23.8691 22.4859 23.9329ZM16.1808 10.9821C15.6184 11.3243 15.2773 11.9752 15.364 12.6697C15.4004 12.9623 15.4638 13.5462 15.5252 14.1108C15.5872 14.682 15.6514 15.2728 15.6892 15.5755C15.8528 16.8885 15.8528 16.8885 15.424 17.7263C15.326 17.9177 15.2041 18.1558 15.0642 18.4468C15.0421 18.4921 15.0208 18.5378 15 18.5839C14.9799 18.5391 14.9592 18.4946 14.9376 18.4506C14.796 18.1559 14.674 17.9177 14.5761 17.7264C14.1472 16.8885 14.1472 16.8885 14.3109 15.5756C14.3486 15.2732 14.4126 14.6836 14.4746 14.1134C14.536 13.5478 14.5996 12.9628 14.6361 12.6697C14.7227 11.9753 14.3816 11.3244 13.8193 10.9821L15.0001 7.80855L16.1808 10.9821Z" fill="#058830"/>
<path d="M14.9999 3.08566C15.3236 3.08566 15.5859 2.82328 15.5859 2.49973V0.585938C15.5859 0.262383 15.3235 0 14.9999 0C14.6764 0 14.414 0.262383 14.414 0.585938V2.49973C14.414 2.82334 14.6764 3.08566 14.9999 3.08566Z" fill="#058830"/>
<path d="M9.21185 4.20774C9.32036 4.39571 9.51729 4.50083 9.7198 4.50083C9.81917 4.50083 9.91995 4.47546 10.0122 4.4222C10.2925 4.26042 10.3885 3.90206 10.2267 3.62181L9.26979 1.96442C9.10796 1.68417 8.7496 1.58808 8.4694 1.74997C8.18915 1.91175 8.09311 2.27011 8.25495 2.55036L9.21185 4.20774Z" fill="#058830"/>
<path d="M3.90318 7.33108L5.56056 8.28797C5.65285 8.34123 5.75357 8.3666 5.853 8.3666C6.0555 8.3666 6.25244 8.26148 6.36095 8.07352C6.52279 7.79326 6.42675 7.43496 6.1465 7.27313L4.48912 6.31624C4.20898 6.15452 3.85056 6.25044 3.68873 6.53069C3.52689 6.81094 3.62292 7.16924 3.90318 7.33108Z" fill="#058830"/>
<path d="M5.02439 13.0612C5.02439 12.7377 4.76207 12.4753 4.43845 12.4753H2.52472C2.20111 12.4753 1.93878 12.7377 1.93878 13.0612C1.93878 13.3848 2.20111 13.6472 2.52472 13.6472H4.43845C4.76207 13.6472 5.02439 13.3848 5.02439 13.0612Z" fill="#058830"/>
<path d="M19.9878 4.42218C20.0801 4.47545 20.1808 4.50082 20.2802 4.50082C20.4827 4.50082 20.6796 4.3957 20.7882 4.20773L21.7451 2.55035C21.9069 2.27009 21.8109 1.91179 21.5306 1.74996C21.2503 1.58806 20.892 1.68422 20.7302 1.96441L19.7733 3.62179C19.6115 3.90205 19.7075 4.26035 19.9878 4.42218Z" fill="#058830"/>
<path d="M24.1471 8.36657C24.2465 8.36657 24.3473 8.3412 24.4395 8.28794L26.0969 7.33104C26.3771 7.1692 26.4732 6.8109 26.3113 6.53065C26.1495 6.25051 25.7912 6.15441 25.5109 6.31619L23.8536 7.27309C23.5733 7.43493 23.4773 7.79323 23.6391 8.07348C23.7477 8.26145 23.9446 8.36657 24.1471 8.36657Z" fill="#058830"/>
<path d="M27.4753 12.4753H25.5615C25.238 12.4753 24.9756 12.7377 24.9756 13.0612C24.9756 13.3848 25.238 13.6472 25.5615 13.6472H27.4753C27.7988 13.6472 28.0612 13.3848 28.0612 13.0612C28.0612 12.7377 27.7989 12.4753 27.4753 12.4753Z" fill="#058830"/>
<path d="M11.4255 8.29151C11.5097 8.33358 11.599 8.3535 11.6871 8.3535C11.902 8.3535 12.109 8.23485 12.2116 8.02948L12.2118 8.02907C12.3565 7.73967 12.2391 7.38793 11.9497 7.2432C11.6603 7.0983 11.3082 7.21596 11.1634 7.50547C11.0188 7.79481 11.1361 8.14678 11.4255 8.29151Z" fill="#058830"/>
<path d="M19.1755 27.0496L19.1751 27.0494C18.8778 26.9219 18.5334 27.0598 18.4059 27.3573C18.2784 27.6547 18.4164 27.9992 18.7138 28.1267C18.7891 28.159 18.8673 28.1743 18.9444 28.1743C19.1717 28.1743 19.388 28.0412 19.4832 27.819C19.6106 27.5216 19.4729 27.1771 19.1755 27.0496Z" fill="#058830"/>
</g>
<defs>
<clipPath id="clip0">
<rect width="30" height="30" fill="white"/>
</clipPath>
</defs>
</svg>
