<svg width="30" height="30" viewBox="0 0 30 30" fill="none" xmlns="http://www.w3.org/2000/svg">
<g clip-path="url(#clip0)">
<path d="M3.51035 5.29471H16.122C16.3648 5.29471 16.5615 5.09795 16.5615 4.85526C16.5615 4.61256 16.3648 4.4158 16.122 4.4158H3.51035C3.26759 4.4158 3.07089 4.61256 3.07089 4.85526C3.07089 5.09795 3.26765 5.29471 3.51035 5.29471Z" fill="#058830"/>
<path d="M3.51035 8.44699H16.122C16.3648 8.44699 16.5615 8.25023 16.5615 8.00754C16.5615 7.76484 16.3648 7.56808 16.122 7.56808H3.51035C3.26759 7.56808 3.07089 7.76484 3.07089 8.00754C3.07089 8.25023 3.26765 8.44699 3.51035 8.44699Z" fill="#058830"/>
<path d="M27.3826 9.25084H20.6408V2.74693C20.6408 1.30371 19.4667 0.129547 18.0234 0.129547H2.61738C1.17416 0.129547 0 1.30371 0 2.74693V12.1278C0 12.3705 0.196699 12.5672 0.439453 12.5672C0.682207 12.5672 0.878906 12.3705 0.878906 12.1278V2.74693C0.878906 1.78834 1.65879 1.00845 2.61738 1.00845H18.0234C18.982 1.00845 19.7619 1.78834 19.7619 2.74693V9.25084H11.9766C10.945 9.25084 10.0511 9.85095 9.62502 10.7202H3.51029C3.26754 10.7202 3.07084 10.9169 3.07084 11.1596C3.07084 11.4023 3.26754 11.5991 3.51029 11.5991H9.37295C9.36387 11.6876 9.35918 11.7773 9.35918 11.8682V17.6344L6.14373 19.7713C5.95945 19.8936 5.73334 19.9042 5.53881 19.7998C5.34439 19.6955 5.22832 19.5015 5.22832 19.2809V17.0016C5.22832 16.7589 5.03162 16.5622 4.78887 16.5622H2.61738C1.65879 16.5622 0.878906 15.7826 0.878906 14.8243V13.8856C0.878906 13.6429 0.682207 13.4461 0.439453 13.4461C0.196699 13.4461 0 13.6429 0 13.8856V14.8243C0 16.2671 1.17416 17.4411 2.61738 17.4411H4.34941V19.2809C4.34941 19.8226 4.64596 20.3182 5.12326 20.5743C5.34105 20.6911 5.57947 20.7491 5.81742 20.7491C6.10119 20.7491 6.38414 20.6667 6.62994 20.5036L9.35918 18.6898V23.9456C9.35918 25.3888 10.5333 26.563 11.9766 26.563H18.762L20.2856 27.5759C20.4878 27.7102 20.7605 27.6553 20.8949 27.4532C21.0292 27.2511 20.9743 26.9783 20.7722 26.8439L19.1379 25.7576C19.0659 25.7096 18.9812 25.6841 18.8947 25.6841H11.9766C11.018 25.6841 10.2381 24.9042 10.2381 23.9456V11.8683C10.2381 10.9097 11.018 10.1298 11.9766 10.1298H27.3826C28.3412 10.1298 29.1211 10.9097 29.1211 11.8683V23.9456C29.1211 24.9042 28.3412 25.6841 27.3826 25.6841H25.2111C24.9684 25.6841 24.7717 25.8809 24.7717 26.1236V28.4023C24.7717 28.6229 24.6555 28.8169 24.461 28.9212C24.2663 29.0256 24.0404 29.015 23.8565 28.8929L22.2359 27.816C22.0335 27.6816 21.761 27.7366 21.6266 27.9388C21.4923 28.1409 21.5473 28.4137 21.7495 28.548L23.3702 29.625C23.6158 29.7881 23.8986 29.8704 24.1823 29.8704C24.4201 29.8704 24.6587 29.8125 24.8764 29.6957C25.3539 29.4396 25.6506 28.944 25.6506 28.4023V26.563H27.3827C28.826 26.563 30.0001 25.3888 30.0001 23.9456V11.8683C30 10.425 28.8258 9.25084 27.3826 9.25084Z" fill="#058830"/>
<path d="M17.5539 20.9061C16.8379 20.9061 16.2555 21.4885 16.2555 22.2045C16.2555 22.9205 16.8379 23.5029 17.5539 23.5029H21.8056C22.5215 23.5029 23.104 22.9205 23.104 22.2045C23.104 21.4885 22.5215 20.9061 21.8056 20.9061H21.7173V17.8698C21.7173 17.1741 21.1513 16.6081 20.4556 16.6081H17.5539C16.838 16.6081 16.2556 17.1906 16.2556 17.9065C16.2556 18.6225 16.838 19.205 17.5539 19.205H17.8578V20.9061H17.5539ZM18.2971 18.3261H17.5538C17.3225 18.3261 17.1343 18.1379 17.1343 17.9065C17.1343 17.6752 17.3225 17.487 17.5538 17.487H20.4555C20.6666 17.487 20.8383 17.6587 20.8383 17.8698V21.3455C20.8383 21.5882 21.035 21.785 21.2777 21.785H21.8054C22.0368 21.785 22.225 21.9732 22.225 22.2045C22.225 22.4358 22.0368 22.624 21.8054 22.624H17.5538C17.3225 22.624 17.1343 22.4358 17.1343 22.2045C17.1343 21.9732 17.3225 21.785 17.5538 21.785H18.2971C18.5398 21.785 18.7365 21.5882 18.7365 21.3455V18.7655C18.7366 18.5228 18.5399 18.3261 18.2971 18.3261Z" fill="#058830"/>
<path d="M21.7173 14.2401C21.7173 13.176 20.8516 12.3104 19.7875 12.3104C18.7234 12.3104 17.8577 13.1761 17.8577 14.2401C17.8577 15.3042 18.7233 16.17 19.7875 16.17C20.8516 16.17 21.7173 15.3043 21.7173 14.2401ZM18.7366 14.2401C18.7366 13.6607 19.208 13.1893 19.7875 13.1893C20.3669 13.1893 20.8384 13.6607 20.8384 14.2401C20.8384 14.8196 20.3669 15.2911 19.7875 15.2911C19.208 15.2911 18.7366 14.8196 18.7366 14.2401Z" fill="#058830"/>
</g>
<defs>
<clipPath id="clip0">
<rect width="30" height="30" fill="white"/>
</clipPath>
</defs>
</svg>
