<svg width="20" height="20" viewBox="0 0 20 20" fill="none" xmlns="http://www.w3.org/2000/svg">
<path d="M2.67162 11.2142L2.64417 11.1811L2.61399 11.1506C1.51162 10.0342 1 8.77547 1 7.48624C1 5.81497 1.90076 4.21546 3.51101 2.99998C5.1209 1.78475 7.39251 1 9.95122 1C12.5099 1 14.7957 1.78483 16.4258 3.00289C18.0553 4.22054 18.978 5.82212 19 7.49215C18.9983 8.76382 18.4499 10.0298 17.3724 11.1647L17.3723 11.1646L17.3655 11.172L17.0275 11.5352L17.024 11.539L10.0292 18.9786C10.0148 18.9867 10.0021 18.9927 9.99162 18.9968C9.99063 18.9972 9.98969 18.9976 9.9888 18.9979L2.89527 11.4834L2.67162 11.2142ZM5.63415 7.52294C5.63415 8.58333 6.2067 9.47881 6.99249 10.076C7.77938 10.674 8.82591 11.0183 9.95122 11.0183C11.0765 11.0183 12.1231 10.674 12.9099 10.076C13.6957 9.47881 14.2683 8.58333 14.2683 7.52294C14.2683 6.46254 13.6957 5.56706 12.9099 4.96988C12.1231 4.37187 11.0765 4.02752 9.95122 4.02752C8.85363 4.02752 7.81027 4.36069 7.01858 4.95026C6.22576 5.54067 5.63415 6.43739 5.63415 7.52294Z" stroke="#7FBF7F" stroke-width="2"/>
</svg>
