<svg width="20" height="20" viewBox="0 0 20 20" fill="none" xmlns="http://www.w3.org/2000/svg">
<path d="M9.95122 0C4.43902 0 0 3.37615 0 7.48624C0 9.06422 0.634146 10.5688 1.90244 11.8532L2.14634 12.1468L9.31707 19.7431C9.46342 19.8899 9.70732 20 10 20C10.2439 20 10.4878 19.8899 10.6829 19.7431L17.7561 12.2202L18.0976 11.8532C19.3171 10.5688 20 9.06422 20 7.48624C19.9512 3.37615 15.4634 0 9.95122 0ZM9.95122 10.0183C8.09756 10.0183 6.63415 8.88073 6.63415 7.52294C6.63415 6.12844 8.14634 5.02752 9.95122 5.02752C11.8049 5.02752 13.2683 6.16514 13.2683 7.52294C13.2683 8.88073 11.8049 10.0183 9.95122 10.0183Z" fill="#058830"/>
</svg>
