<svg width="20" height="20" viewBox="0 0 20 20" fill="none" xmlns="http://www.w3.org/2000/svg">
<path d="M13.2906 7.45497L13.2906 7.45492C14.2122 6.68609 14.6226 5.81071 14.6226 4.81688C14.6226 3.82355 14.2122 2.94798 13.2904 2.17878C12.3634 1.4057 11.2222 1 9.84874 1C8.47479 1 7.33381 1.40576 6.40702 2.17898C5.48542 2.94788 5.07483 3.82343 5.07483 4.81688C5.07483 5.81062 5.48541 6.68612 6.40708 7.45497L13.2906 7.45497ZM13.2906 7.45497C12.3638 8.22827 11.2225 8.63406 9.84874 8.63406M13.2906 7.45497L9.84874 8.63406M9.84874 8.63406C8.47547 8.63406 7.33423 8.22822 6.40714 7.45502L9.84874 8.63406Z" fill="white" stroke="#7FBF7F" stroke-width="2"/>
<path d="M18.4511 13.203L18.4511 13.2028C18.3257 12.8758 18.1521 12.5454 17.9323 12.2227L18.7587 11.6597L17.9323 12.2227C17.715 11.9039 17.4647 11.6333 17.1909 11.4149L17.1908 11.4147C16.9248 11.2024 16.5781 11.0152 16.145 10.8719C15.7325 10.7357 15.2572 10.6609 14.7272 10.6609L14.7269 10.6609C14.7253 10.6609 14.7251 10.6609 14.7226 10.6614C14.7187 10.6621 14.7032 10.6652 14.6712 10.6766C14.5991 10.7021 14.4802 10.7554 14.2661 10.8717C13.9819 11.0263 13.6505 11.2046 13.2816 11.4012L13.2806 11.4018C12.8752 11.6173 12.371 11.7971 11.807 11.9491L18.4511 13.203ZM18.4511 13.203C18.5807 13.5406 18.692 13.9181 18.7796 14.3252L18.4511 13.203ZM6.7184 11.4017L6.71776 11.4013C6.35224 11.2065 6.02059 11.0282 5.73218 10.8714L5.73199 10.8713C5.5183 10.7551 5.39964 10.7019 5.32767 10.6764C5.29572 10.6651 5.28024 10.6619 5.2763 10.6612C5.27384 10.6608 5.27364 10.6608 5.272 10.6608L5.27169 10.6608C4.74173 10.6608 4.26673 10.7357 3.85439 10.872L3.85425 10.872C3.42164 11.0149 3.07476 11.2021 2.80837 11.4147L6.7184 11.4017ZM6.7184 11.4017C7.12378 11.6174 7.62827 11.7973 8.19181 11.9492L6.7184 11.4017ZM2.06721 12.2224L2.06714 12.2225C1.84739 12.5452 1.67383 12.8756 1.54827 13.2027L2.06721 12.2224ZM2.06721 12.2224C2.28371 11.9043 2.53404 11.6339 2.80816 11.4149L2.06721 12.2224ZM1.0445 15.462L1.04448 15.4623C1.01505 15.8162 1 16.1857 1 16.5605C1 17.3141 1.26984 17.8652 1.80401 18.2898C2.36014 18.7313 3.14803 19.0001 4.22865 19.0001H15.7713C16.852 19.0001 17.6395 18.7315 18.1958 18.2898L18.1958 18.2897C18.7298 17.8658 18.9999 17.315 19 16.5608L1.0445 15.462ZM1.0445 15.462C1.07275 15.1211 1.13091 14.7389 1.21978 14.3256L1.0445 15.462ZM18.955 15.4618C18.9267 15.1218 18.8686 14.7397 18.7797 14.3256L18.955 15.4618ZM18.955 15.4618L19.9513 15.379M18.955 15.4618L19.9513 15.379M19.9513 15.379L18.955 15.4627M19.9513 15.379L18.955 15.4627M18.955 15.4627C18.9846 15.8142 18.9998 16.1837 19 16.5603L18.955 15.4627ZM9.99945 12.1923C10.604 12.1923 11.2119 12.1097 11.8066 11.9493L8.19199 11.9493C8.78699 12.1097 9.39475 12.1923 9.99945 12.1923ZM1.21981 14.3254C1.30737 13.9184 1.41862 13.541 1.54815 13.203L1.21981 14.3254Z" fill="white" stroke="#7FBF7F" stroke-width="2"/>
</svg>
