<svg width="20" height="20" viewBox="0 0 20 20" fill="none" xmlns="http://www.w3.org/2000/svg">
<path d="M10.0015 0C6.80962 0 4.20038 2.33559 4.20038 5.19275C4.20038 8.04991 6.80962 10.3855 10.0015 10.3855C13.1935 10.3855 15.8027 8.04991 15.8027 5.19275C15.8027 2.33559 13.1935 0 10.0015 0Z" fill="#058830"/>
<path d="M19.9573 14.5352C19.8052 14.195 19.6026 13.8776 19.3746 13.5828C18.2093 12.0408 16.4107 11.0204 14.3841 10.771C14.1308 10.7483 13.8522 10.7936 13.6495 10.9297C12.5855 11.6326 11.3189 11.9954 10.0016 11.9954C8.68424 11.9954 7.41763 11.6326 6.35366 10.9297C6.15098 10.7936 5.87232 10.7256 5.61901 10.771C3.5924 11.0204 1.76847 12.0408 0.628517 13.5828C0.400525 13.8776 0.197845 14.2177 0.0458831 14.5352C-0.0300978 14.6712 -0.00478701 14.8299 0.0711939 14.966C0.273874 15.2835 0.527176 15.601 0.755168 15.873C1.10981 16.3039 1.48981 16.6894 1.92048 17.0522C2.27513 17.3696 2.68044 17.6644 3.0858 17.9592C5.08705 19.2971 7.49366 20 9.97626 20C12.4589 20 14.8655 19.2971 16.8667 17.9592C17.272 17.6871 17.6773 17.3696 18.032 17.0522C18.4373 16.6894 18.8427 16.3039 19.1973 15.873C19.4506 15.5783 19.6787 15.2835 19.8813 14.966C20.0079 14.8299 20.0332 14.6712 19.9573 14.5352Z" fill="#058830"/>
</svg>
