<svg width="20" height="20" viewBox="0 0 20 20" fill="none" xmlns="http://www.w3.org/2000/svg">
<path d="M5.20038 5.19275C5.20038 2.98919 7.25483 1 10.0015 1C12.7483 1 14.8027 2.98919 14.8027 5.19275C14.8027 7.39632 12.7483 9.3855 10.0015 9.3855C7.25483 9.3855 5.20038 7.39632 5.20038 5.19275Z" stroke="#7FBF7F" stroke-width="2"/>
<path d="M18.8913 14.6467C18.7567 14.8373 18.607 15.0257 18.4389 15.2213L18.432 15.2293L18.4253 15.2374C18.1192 15.6093 17.7585 15.9549 17.3651 16.307C17.0436 16.5948 16.6752 16.8833 16.3104 17.1283C14.4825 18.35 12.2716 19 9.97626 19C7.68742 19 5.4825 18.3537 3.65764 17.1386C3.25064 16.8426 2.89345 16.581 2.58744 16.3071L2.57625 16.2971L2.56476 16.2874C2.18103 15.9641 1.84373 15.622 1.52726 15.2375L1.52729 15.2375L1.52166 15.2308C1.37322 15.0536 1.22516 14.8699 1.09326 14.689C1.19133 14.5162 1.30271 14.3456 1.41955 14.1945L1.42618 14.186L1.43263 14.1772C2.39592 12.8742 3.96333 11.9823 5.74117 11.7635L5.76833 11.7601L5.78333 11.7574C5.78436 11.7576 5.78557 11.7578 5.78696 11.7582C5.79179 11.7592 5.79613 11.7607 5.79913 11.762C5.79932 11.7621 5.79949 11.7621 5.79965 11.7622L5.80242 11.764C7.04028 12.5819 8.501 12.9954 10.0016 12.9954C11.4967 12.9954 12.9523 12.5849 14.1872 11.7729C14.1894 11.7724 14.1921 11.7718 14.1952 11.7711C14.2177 11.7666 14.2489 11.7641 14.283 11.7661C16.0455 11.9885 17.5866 12.8754 18.5768 14.1857L18.5768 14.1857L18.5836 14.1945C18.6998 14.3449 18.8031 14.4956 18.8913 14.6467Z" stroke="#7FBF7F" stroke-width="2"/>
</svg>
