<svg width="20" height="20" viewBox="0 0 20 20" fill="none" xmlns="http://www.w3.org/2000/svg">
<path d="M9.84874 9.63406C11.4351 9.63406 12.8088 9.15936 13.9313 8.22278C15.0537 7.28635 15.6226 6.14057 15.6226 4.81688C15.6226 3.49364 15.0537 2.34771 13.9311 1.41097C12.8085 0.474699 11.435 0 9.84874 0C8.26215 0 6.88881 0.474699 5.7664 1.41113C4.64399 2.34756 4.07483 3.49349 4.07483 4.81688C4.07483 6.14057 4.64399 7.2865 5.76658 8.22293C6.88918 9.1592 8.2627 9.63406 9.84874 9.63406V9.63406Z" fill="#058830"/>
<path d="M19.9515 15.379C19.9192 14.9893 19.8537 14.5642 19.7573 14.1152C19.66 13.663 19.5347 13.2354 19.3848 12.8447C19.2298 12.4408 19.0191 12.0419 18.7587 11.6597C18.4884 11.2629 18.1709 10.9175 17.8146 10.6332C17.4421 10.3358 16.9859 10.0967 16.4585 9.9223C15.9328 9.74881 15.3503 9.66092 14.7272 9.66092C14.4825 9.66092 14.2458 9.74469 13.7888 9.99295C13.5075 10.146 13.1785 10.323 12.8112 10.5188C12.4972 10.6857 12.0718 10.8421 11.5464 10.9837C11.0337 11.1221 10.5132 11.1923 9.99945 11.1923C9.48571 11.1923 8.96538 11.1221 8.45218 10.9837C7.92728 10.8423 7.50187 10.6858 7.18821 10.5189C6.82444 10.325 6.49524 10.148 6.20974 9.9928C5.75324 9.74454 5.5164 9.66077 5.27169 9.66077C4.64839 9.66077 4.06606 9.74881 3.54061 9.92245C3.01352 10.0966 2.5572 10.3357 2.18428 10.6334C1.82819 10.9178 1.51051 11.2631 1.24056 11.6597C0.980302 12.0419 0.769611 12.4406 0.614518 12.8448C0.464729 13.2356 0.339448 13.663 0.242149 14.1152C0.145765 14.5635 0.0802897 14.9888 0.0479178 15.3794C0.0160945 15.7621 0 16.1593 0 16.5605C0 17.6045 0.397791 18.4496 1.18222 19.073C1.95695 19.688 2.98206 20.0001 4.22865 20.0001H15.7713C17.0179 20.0001 18.0427 19.6882 18.8176 19.073C19.6022 18.4501 20 17.6048 20 16.5603C19.9998 16.1573 19.9835 15.7598 19.9515 15.379V15.379Z" fill="#058830"/>
</svg>
